<mxfile host="65bd71144e">
    <diagram id="HmMTP0gQva8uZzKwotRp" name="Page-1">
        <mxGraphModel dx="638" dy="488" grid="1" gridSize="10" guides="1" tooltips="1" connect="1" arrows="1" fold="1" page="1" pageScale="1" pageWidth="850" pageHeight="1100" math="0" shadow="0">
            <root>
                <mxCell id="0"/>
                <mxCell id="1" parent="0"/>
                <mxCell id="3" value="" style="rounded=0;whiteSpace=wrap;html=1;fillColor=none;" vertex="1" parent="1">
                    <mxGeometry x="240" y="200" width="290" height="400" as="geometry"/>
                </mxCell>
                <mxCell id="4" value="" style="rounded=0;whiteSpace=wrap;html=1;fillColor=none;strokeColor=#787676;" vertex="1" parent="1">
                    <mxGeometry x="250" y="210" width="270" height="380" as="geometry"/>
                </mxCell>
                <mxCell id="5" value="" style="rounded=0;whiteSpace=wrap;html=1;strokeColor=#787676;fillColor=none;" vertex="1" parent="1">
                    <mxGeometry x="260" y="220" width="120" height="40" as="geometry"/>
                </mxCell>
                <mxCell id="6" value="" style="rounded=0;whiteSpace=wrap;html=1;strokeColor=#787676;fillColor=none;" vertex="1" parent="1">
                    <mxGeometry x="390" y="220" width="120" height="40" as="geometry"/>
                </mxCell>
                <mxCell id="7" value="" style="rounded=0;whiteSpace=wrap;html=1;strokeColor=#787676;fillColor=none;" vertex="1" parent="1">
                    <mxGeometry x="259" y="289" width="250" height="50" as="geometry"/>
                </mxCell>
                <mxCell id="9" value="" style="rounded=0;whiteSpace=wrap;html=1;strokeColor=#787676;fillColor=none;" vertex="1" parent="1">
                    <mxGeometry x="259" y="349" width="250" height="50" as="geometry"/>
                </mxCell>
                <mxCell id="10" value="" style="rounded=0;whiteSpace=wrap;html=1;strokeColor=#787676;fillColor=none;" vertex="1" parent="1">
                    <mxGeometry x="259" y="409" width="250" height="50" as="geometry"/>
                </mxCell>
                <mxCell id="11" value="" style="rounded=0;whiteSpace=wrap;html=1;strokeColor=#787676;fillColor=none;" vertex="1" parent="1">
                    <mxGeometry x="259" y="469" width="61" height="50" as="geometry"/>
                </mxCell>
                <mxCell id="12" value="" style="rounded=0;whiteSpace=wrap;html=1;strokeColor=#787676;fillColor=none;" vertex="1" parent="1">
                    <mxGeometry x="330" y="469" width="179" height="50" as="geometry"/>
                </mxCell>
                <mxCell id="13" value="" style="rounded=0;whiteSpace=wrap;html=1;strokeColor=#787676;fillColor=none;" vertex="1" parent="1">
                    <mxGeometry x="260" y="540" width="250" height="40" as="geometry"/>
                </mxCell>
            </root>
        </mxGraphModel>
    </diagram>
</mxfile>